<svg width="162" height="23" viewBox="0 0 162 23" fill="none" xmlns="http://www.w3.org/2000/svg">
<path fill-rule="evenodd" clip-rule="evenodd" d="M11.3792 0.738525C5.43579 0.738525 0.617676 5.55664 0.617676 11.5001C0.617676 17.4435 5.43579 22.2617 11.3792 22.2617H150.621C156.564 22.2617 161.382 17.4435 161.382 11.5001C161.382 5.55664 156.564 0.738525 150.621 0.738525H11.3792ZM62.6011 15.8264C63.0252 16.0411 63.615 16.1472 64.3691 16.1472L64.3731 16.1445H68.8011C69.6825 16.1445 70.3557 16.1008 70.8236 16.016C71.2901 15.9311 71.6122 15.8357 71.7871 15.7283C71.9621 15.6223 72.0495 15.5415 72.0495 15.4885L71.3961 14.4322C71.1629 14.4759 70.5598 14.5157 69.5884 14.5528C68.6169 14.5899 67.2491 14.6084 65.4864 14.6084H64.833C64.3559 14.6084 64.0232 14.5104 63.8376 14.3129C63.6521 14.1154 63.5593 13.8357 63.5593 13.4726V9.39051C63.5593 8.63241 63.9834 8.25336 64.833 8.25336H65.6454C67.3339 8.25336 68.6208 8.27191 69.5075 8.30902C70.3942 8.34746 70.9283 8.38192 71.1085 8.41373L71.4266 7.08572C71.4266 7.0009 71.2318 6.9174 70.8448 6.83788C70.4565 6.75704 69.8972 6.71727 69.1642 6.71727H64.3704C63.3393 6.71727 62.5958 6.96114 62.1399 7.44622C61.6826 7.9313 61.4547 8.68675 61.4547 9.71125V13.2804C61.4547 13.9113 61.5395 14.4388 61.7091 14.8655C61.8788 15.2936 62.1757 15.613 62.6011 15.8264ZM28.8499 8.01605V16.1471L28.8512 16.1484H30.9532V13.0908C31.2395 13.112 31.6716 13.1385 32.2507 13.1703C32.8286 13.2022 33.4528 13.2181 34.1221 13.2181H35.747C36.3633 13.2181 36.863 13.1253 37.2447 12.9384C37.6264 12.7529 37.9193 12.5169 38.1207 12.2346C38.3222 11.9523 38.46 11.6581 38.5342 11.3546C38.6085 11.0511 38.6456 10.7754 38.6456 10.5302V9.58526C38.6456 9.28573 38.6191 8.97162 38.566 8.64029C38.513 8.30895 38.3938 7.99749 38.2082 7.70326C38.0227 7.41036 37.7351 7.17312 37.348 6.99155C36.9597 6.8113 36.4269 6.71985 35.747 6.71985H28.6908L28.8499 8.01605ZM35.2845 11.6806H30.9519V8.25461H35.3004C35.7669 8.25461 36.0916 8.37257 36.2719 8.60715C36.4521 8.84174 36.5422 9.12934 36.5422 9.47128V10.4799C36.5422 10.8112 36.4521 11.0935 36.2719 11.3281C36.0916 11.5627 35.7629 11.6806 35.2845 11.6806ZM12.0603 16.0516C12.4009 16.1152 12.9311 16.147 13.6534 16.147H18.9402C19.9488 16.147 20.6565 15.9005 21.0661 15.4101C21.4756 14.9197 21.6797 14.2743 21.6797 13.4738V13.218C21.6797 12.5036 21.5525 11.9616 21.298 11.5931C21.0435 11.2247 20.6777 10.9715 20.1993 10.8324C19.7222 10.6932 19.143 10.6243 18.4631 10.6243H14.927C14.4711 10.6243 14.1438 10.5368 13.9476 10.3605C13.7515 10.1843 13.6534 9.92052 13.6534 9.56797V9.29628C13.6627 8.99675 13.7541 8.7489 13.9237 8.55143C14.0934 8.35528 14.4221 8.25587 14.9111 8.25587L15.0861 8.27178C16.7322 8.27178 18.0443 8.29033 19.0211 8.32744C19.9978 8.36588 20.6247 8.40034 20.9004 8.43215L21.2185 7.08691C21.2185 7.00209 20.9958 6.92124 20.5492 6.84702C20.1025 6.77148 19.5194 6.73437 18.7971 6.73437H14.4645C13.721 6.73437 13.1365 6.85498 12.7124 7.09486C12.2869 7.33608 11.9874 7.65284 11.8125 8.04779C11.6375 8.44275 11.55 8.87481 11.55 9.34399V9.59978C11.55 10.5076 11.7939 11.161 12.283 11.5613C12.772 11.9616 13.5527 12.1617 14.6249 12.1617H18.3199C18.8501 12.1617 19.1934 12.2412 19.3471 12.4016C19.5008 12.5619 19.5777 12.8283 19.5777 13.2021V13.5228C19.5777 13.9178 19.4823 14.1974 19.2914 14.3631C19.1006 14.5288 18.7759 14.6109 18.3199 14.6109H18.0178C16.3187 14.6109 14.9827 14.5924 14.0112 14.5553C13.0397 14.5168 12.4314 14.4771 12.1875 14.4347L11.55 15.8276C11.55 15.9124 11.721 15.988 12.0603 16.0516ZM43.4234 16.147L48.09 6.73437H51.2284L55.8791 16.147H53.4258L52.4862 14.1139H46.7832L45.7481 16.147H43.4234ZM47.3597 12.546H51.8977L49.7162 8.17635H49.5571L47.3597 12.546ZM78.4181 16.147V6.73434H88.3251V8.27043H80.5201V10.4798H86.4776V12.0649H80.5201V14.6096H88.3887L89.0262 15.9707C89.0262 16.0131 88.8831 16.0529 88.5968 16.0913C88.3106 16.1284 87.8162 16.147 87.1151 16.147H78.4181ZM98.5834 8.25593L98.5993 16.1471H100.701V8.25593H104.859V6.71985H94.4417V8.25593H98.5834ZM111.23 16.147V6.73437H113.332V16.147H111.23ZM120.819 8.01612V16.1472L120.82 16.1485H122.922V10.1778H123.081L123.719 11.5707L125.725 15.1889H127.652L129.659 11.5707L130.281 10.1778H130.456V16.1485H132.558V6.73583H130.408L126.681 13.1386L123.081 6.73583H120.66L120.819 8.01612ZM139.885 16.147V6.73437H149.792V8.27045H141.987V10.4798H147.945V12.0649H141.987V14.6096H149.856L150.493 15.9708C150.493 16.0132 150.35 16.0529 150.064 16.0914C149.778 16.1285 149.283 16.147 148.582 16.147H139.885Z" fill="url(#paint0_linear_352_94)"/>
<defs>
<linearGradient id="paint0_linear_352_94" x1="37.8561" y1="-1.67421" x2="104.94" y2="89.303" gradientUnits="userSpaceOnUse">
<stop offset="0.251308" stop-color="#996DFF"/>
<stop offset="0.623787" stop-color="#FF876E"/>
<stop offset="1" stop-color="#FFD072"/>
</linearGradient>
</defs>
</svg>
